{"title":"Married At First Sight Au - S03E01","uid":15777758,"size":529809640,"categoryP":"video","categoryS":"tv_shows","magnet":"?xt=urn:btih:5db229cfd8aec83914fb62ee1a3aa4068db7ff36&amp;dn=Married+At+First+Sight+Au+-+S03E01&amp;tr=udp%3A%2F%2Ftracker.leechers-paradise.org%3A6969&amp;tr=udp%3A%2F%2Fzer0day.ch%3A1337&amp;tr=udp%3A%2F%2Fopen.demonii.com%3A1337&amp;tr=udp%3A%2F%2Ftracker.coppersurfer.tk%3A6969&amp;tr=udp%3A%2F%2Fexodus.desync.com%3A6969","seeders":10,"leechers":2,"uploader":"Bullrout","files":1,"time":1473253055,"description":"Married At First Sight Au - S03E01\r\n\r\nWe meet our first four singles and follow them and their families as they prepare for the biggest day of their lives – a day that should see them say &quot;I do&quot; to a complete stranger.\r\n\r\nComplete name                            : Married At First Sight Au - S03E01.mp4\r\nFormat                                   : MPEG-4\r\nFormat profile                           : Base Media / Version 2\r\nCodec ID                                 : mp42 (mp42/isom/avc1)\r\nFile size                                : 505 MiB\r\nDuration                                 : 1h 3mn\r\nOverall bit rate mode                    : Variable\r\nOverall bit rate                         : 1 116 Kbps\r\n\r\nVideo\r\nID                                       : 2\r\nFormat                                   : AVC\r\nFormat/Info                              : Advanced Video Codec\r\nFormat profile                           :   \r\nFormat settings, CABAC                   : Yes\r\nFormat settings, ReFrames                : 3 frames\r\nCodec ID                                 : avc1\r\nCodec ID/Info                            : Advanced Video Coding\r\nDuration                                 : 1h 3mn\r\nBit rate mode                            : Variable\r\nBit rate                                 : 985 Kbps\r\nMaximum bit rate                         : 1 000 Kbps\r\nWidth                                    : 720 pixels\r\nHeight                                   : 404 pixels\r\nDisplay aspect ratio                     : 16:9\r\nOriginal display aspect ratio            : 16:9\r\nFrame rate mode                          : Constant\r\nFrame rate                               : 25.000 fps\r\nStandard                                 : PAL\r\nColor space                              : YUV\r\nChroma subsampling                       : 4:2:0\r\nBit depth                                : 8 bits\r\nScan type                                : Progressive\r\nBits/(Pixel*Frame)                       : 0.135\r\nStream size                              : 446 MiB (88%)\r\nWriting library                          : x264 core 112\r\nColor range                              : Limited\r\nColor primaries                          : BT.601 PAL\r\nTransfer characteristics                 : BT.470 System B, BT.470 System G\r\nMatrix coefficients                      : BT.601\r\n\r\nAudio\r\nID                                       : 1\r\nFormat                                   : AAC\r\nFormat/Info                              : Advanced Audio Codec\r\nFormat profile                           : LC\r\nCodec ID                                 : 40\r\nDuration                                 : 1h 3mn\r\nBit rate mode                            : Variable\r\nBit rate                                 : 128 Kbps\r\nMaximum bit rate                         : 576 Kbps\r\nChannel(s)                               : 2 channels\r\nChannel positions                        : Front: L R\r\nSampling rate                            : 48.0 KHz\r\nFrame rate                               : 46.875 fps (1024 spf)\r\nCompression mode                         : Lossy\r\nStream size                              : 57.9 MiB (11%)","torrent":{"xt":"urn:btih:5db229cfd8aec83914fb62ee1a3aa4068db7ff36","amp;dn":"Married+At+First+Sight+Au+-+S03E01","amp;tr":["udp%3A%2F%2Ftracker.leechers-paradise.org%3A6969","udp%3A%2F%2Fzer0day.ch%3A1337","udp%3A%2F%2Fopen.demonii.com%3A1337","udp%3A%2F%2Ftracker.coppersurfer.tk%3A6969","udp%3A%2F%2Fexodus.desync.com%3A6969"],"infoHash":"5db229cfd8aec83914fb62ee1a3aa4068db7ff36","infoHashBuffer":{"type":"Buffer","data":[93,178,41,207,216,174,200,57,20,251,98,238,26,58,164,6,141,183,255,54]},"announce":[],"urlList":[]}}